<mxfile host="Electron" agent="Mozilla/5.0 (Windows NT 10.0; Win64; x64) AppleWebKit/537.36 (KHTML, like Gecko) draw.io/27.0.9 Chrome/134.0.6998.205 Electron/35.4.0 Safari/537.36" version="27.0.9">
  <diagram name="Page-1" id="AcW_P78Xfz2Vmk0OPehk">
    <mxGraphModel dx="186" dy="333" grid="1" gridSize="10" guides="1" tooltips="1" connect="1" arrows="1" fold="1" page="1" pageScale="1" pageWidth="1600" pageHeight="900" math="0" shadow="0">
      <root>
        <mxCell id="0" />
        <mxCell id="1" parent="0" />
        <mxCell id="pKQ1DFMtgbmYqmVptr8--3" value="" style="edgeStyle=orthogonalEdgeStyle;rounded=0;orthogonalLoop=1;jettySize=auto;html=1;" edge="1" parent="1" source="pKQ1DFMtgbmYqmVptr8--1" target="pKQ1DFMtgbmYqmVptr8--2">
          <mxGeometry relative="1" as="geometry" />
        </mxCell>
        <mxCell id="pKQ1DFMtgbmYqmVptr8--1" value="Start" style="rounded=1;whiteSpace=wrap;html=1;" vertex="1" parent="1">
          <mxGeometry x="160" y="240" width="120" height="40" as="geometry" />
        </mxCell>
        <mxCell id="pKQ1DFMtgbmYqmVptr8--5" value="" style="edgeStyle=orthogonalEdgeStyle;rounded=0;orthogonalLoop=1;jettySize=auto;html=1;" edge="1" parent="1" source="pKQ1DFMtgbmYqmVptr8--2" target="pKQ1DFMtgbmYqmVptr8--4">
          <mxGeometry relative="1" as="geometry" />
        </mxCell>
        <mxCell id="pKQ1DFMtgbmYqmVptr8--2" value="เปิดไฟล์ 1.txt, 2.txt&lt;div&gt;และ OutputFile&lt;/div&gt;" style="rounded=0;whiteSpace=wrap;html=1;" vertex="1" parent="1">
          <mxGeometry x="160" y="320" width="120" height="40" as="geometry" />
        </mxCell>
        <mxCell id="pKQ1DFMtgbmYqmVptr8--4" value="เปิดไฟล์ 1.txt, 2.txt&lt;div&gt;และ OutputFile&lt;/div&gt;" style="rounded=0;whiteSpace=wrap;html=1;" vertex="1" parent="1">
          <mxGeometry x="160" y="400" width="120" height="40" as="geometry" />
        </mxCell>
      </root>
    </mxGraphModel>
  </diagram>
</mxfile>
